# xmcd
#
# Track frame offsets:
#	150
#	12827
#	24432
#	33760
#	47642
#	60050
#	74275
#	87207
#	96817
#	108560
#	120395
#	130052
#	144910
#	156140
#	168595
#	183280
#	195495
#	206537
#	218277
#	230365
#
# Disc length: 3266 seconds
#
# Revision: 0
# Processed by: cddbd v1.5.2PL0 Copyright (c) Steve Scherf et al.
# Submitted via: dBpowerAMP V4.0
#
DISCID=f30cc014
DTITLE=Lewis Family - Double Disc: Better Than Ever/Good and Plenty
DYEAR=1900
DGENRE=Gospel
TTITLE0=Family Bible
TTITLE1=Sawdust and Folding Chairs
TTITLE2=Let Me Go
TTITLE3=This Ole House
TTITLE4=Standing Here Wondering Which Way To Go
TTITLE5=Walk Them Golden Stairs
TTITLE6=I Can Swim
TTITLE7=A Little At A Time
TTITLE8=The man of Galilee
TTITLE9=Banjo Crossfire
TTITLE10=Down At the River of Life
TTITLE11=On the Wings of a Dove
TTITLE12=Love, Sweet Love
TTITLE13=Good and Plenty
TTITLE14=Surely I Will, Lord
TTITLE15=Dig a Little Deeper
TTITLE16=When He Puts a  Little Sunshine In
TTITLE17=Just As the Sun Went Down
TTITLE18=Take All the Love
TTITLE19=Lord, Light a Candle
EXTD=Label:  The Benson Company\n\nSubmitted by Rich Price
EXTT0=
EXTT1=
EXTT2=
EXTT3=
EXTT4=
EXTT5=
EXTT6=
EXTT7=
EXTT8=
EXTT9=
EXTT10=
EXTT11=
EXTT12=
EXTT13=
EXTT14=
EXTT15=
EXTT16=
EXTT17=
EXTT18=
EXTT19=
PLAYORDER=
